<svg viewBox="0 0 1031.98 298.17" xmlns="http://www.w3.org/2000/svg" xmlns:xlink="http://www.w3.org/1999/xlink" id="Layer_1" overflow="hidden"><defs></defs><path d="M472.97 189.02C463.65 202.69 449.75 209.52 431.26 209.52 414.48 209.52 400.81 203.69 390.25 192.04 380 180.55 374.87 166.33 374.87 149.4 374.87 132.47 380 118.26 390.25 106.76 400.81 95.11 414.87 89.28 432.43 89.28 449.99 89.28 463.5 96.19 472.97 110.02L472.97 91.15 490.45 91.15 490.45 207.65 472.97 207.65 472.97 189.01ZM433.59 193.68C446.17 193.68 456.11 189.33 463.42 180.63 470.41 172.4 473.9 161.99 473.9 149.41 473.9 136.83 470.41 126.42 463.42 118.19 456.12 109.49 446.18 105.14 433.59 105.14 421 105.14 411.07 109.49 403.3 118.19 395.99 126.42 392.35 136.83 392.35 149.41 392.35 161.99 396 172.4 403.3 180.63 411.06 189.33 421.16 193.68 433.59 193.68Z" fill="#3D4647"/><path d="M582.24 89.3 582.24 106.78 580.14 106.78C567.56 106.78 557.31 111.83 549.38 121.93 541.92 131.56 538.2 143.06 538.2 156.42L538.2 207.68 520.72 207.68 520.72 91.18 538.2 91.18 538.2 119.84C541.93 107.72 550 98.79 562.43 93.04 567.56 90.56 573.77 89.31 581.07 89.31L582.24 89.31Z" fill="#3D4647"/><path d="M653.07 193.68C668.76 193.68 680.02 187.15 686.86 174.11L705.97 174.11C701.93 184.68 695.52 193.22 686.75 199.74 677.97 206.26 666.67 209.52 652.85 209.52 635.3 209.52 621.01 203.69 609.98 192.04 599.26 180.7 593.9 166.49 593.9 149.4 593.9 132.31 599.02 117.94 609.28 106.76 620.15 95.11 634.29 89.28 651.69 89.28 669.09 89.28 683.22 95.11 694.1 106.76 704.35 117.94 709.48 132.16 709.48 149.4L709.48 156.39 611.85 156.39C613.09 167.11 617.36 175.96 624.67 182.95 632.13 190.1 641.6 193.67 653.1 193.67ZM651.67 105.14C640.95 105.14 631.94 108.48 624.64 115.16 617.8 121.53 613.61 129.84 612.06 140.09L691.28 140.09C689.73 129.84 685.53 121.53 678.7 115.16 671.39 108.48 662.39 105.14 651.67 105.14Z" fill="#3D4647"/><path d="M748.37 91.16 748.37 109.33C752.56 103.74 757.69 99 763.75 95.12 769.81 91.24 776.72 89.29 784.48 89.29 792.24 89.29 798.93 90.38 804.52 92.55 810.11 94.73 815 97.99 819.2 102.34 828.83 111.82 833.65 124.32 833.65 139.85L833.65 207.65 816.17 207.65 816.17 140.31C816.17 129.59 813.14 121.05 807.08 114.68 801.02 108.31 793.18 105.13 783.54 105.13 773.9 105.13 765.44 108.39 758.61 114.92 751.77 121.6 748.36 130.14 748.36 140.55L748.36 207.66 730.88 207.66 730.88 91.16 748.36 91.16Z" fill="#3D4647"/><path d="M953.65 189.02C944.33 202.69 930.42 209.52 911.94 209.52 895.16 209.52 881.49 203.69 870.93 192.04 860.68 180.55 855.55 166.33 855.55 149.4 855.55 132.47 860.67 118.26 870.93 106.76 881.49 95.11 895.55 89.28 913.1 89.28 930.65 89.28 944.17 96.19 953.64 110.02L953.64 91.15 971.12 91.15 971.12 207.65 953.64 207.65 953.64 189.01ZM914.27 193.68C926.85 193.68 936.79 189.33 944.1 180.63 951.09 172.4 954.58 161.99 954.58 149.41 954.58 136.83 951.08 126.42 944.1 118.19 936.79 109.49 926.86 105.14 914.27 105.14 901.68 105.14 891.74 109.49 883.98 118.19 876.68 126.42 873.03 136.83 873.03 149.41 873.03 161.99 876.68 172.4 883.98 180.63 891.74 189.33 901.84 193.68 914.27 193.68Z" fill="#3D4647"/><path d="M214.94 88.99 248.77 69.1 129.11 0 47.84 47.03 81.73 66.6 129.11 39.25 214.94 88.99Z" fill="#40AA1D" fill-rule="evenodd"/><path d="M81.96 270.95 81.96 232.06 34.27 204.42 34.27 112.25 0 92.37 0 223.63 81.96 270.95Z" fill="#3D4647"/><path d="M210.24 167.37 209.82 198.36 129.11 245.36 129.11 298.17 97.26 279.78 97.26 232.84 210.24 167.37Z" fill="#40AA1D"/><path d="M81.96 214.39 49.57 195.56 49.51 103.42 0 74.54 32.38 55.84 81.96 84.61 81.96 214.39Z" fill="#40AA1D"/><path d="M258.21 81.97 258.22 121.43 217.13 145.24 97.24 75.76 129.11 57.29 214.89 107.14 258.21 81.97Z" fill="#3D4647"/><path d="M144.41 289.34 258.22 223.63 258.12 139.77 225.69 158.2 225.58 207.23 144.41 254.27 144.41 289.34Z" fill="#3D4647"/><path d="M990.64 94.48 990.64 91.61 1008.08 91.61 1008.08 94.48 1000.82 94.48 1000.82 112.9 997.83 112.9 997.83 94.48 990.64 94.48ZM1028.87 91.61 1031.98 91.61 1031.98 112.89 1028.99 112.89 1028.99 96.49 1021.92 105.58 1014.73 96.49 1014.73 112.89 1011.74 112.89 1011.74 91.61 1014.91 91.61 1021.92 100.94 1028.87 91.61Z" fill="#3D4647"/></svg>