<svg width="417" height="169" xmlns="http://www.w3.org/2000/svg" xmlns:xlink="http://www.w3.org/1999/xlink" xml:space="preserve" overflow="hidden"><defs><clipPath id="clip0"><rect x="62" y="46" width="417" height="169"/></clipPath></defs><g clip-path="url(#clip0)" transform="translate(-62 -46)"><path d="M91.4131 27.2894 58.317 46.4044 58.317 63.3263 91.4131 44.0617 110.03 54.7282 106.341 56.8964 91.4131 48.3233 78.4538 55.8248 108.086 72.971 124.534 63.3512 124.534 46.4044Z" fill="#3D4647" transform="matrix(1.00056 0 0 1 62 46.0027)"/><path d="M91.4131 103.675 124.534 84.6095 124.534 67.6626 91.4131 86.9023 72.7965 76.2357 76.5099 74.0925 91.4131 82.6656 104.397 75.1641 74.7404 57.993 58.317 67.6128 58.317 84.6095Z" fill="#6EBE4C" transform="matrix(1.00056 0 0 1 62 46.0027)"/><path d="M157.879 52.6846C160.87 48.3233 165.306 46.1302 171.213 46.1302 176.571 46.1302 180.907 47.9994 184.247 51.7127 187.561 55.3762 189.231 59.9369 189.231 65.3449 189.231 70.7529 187.561 75.2887 184.247 78.9771 180.932 82.6905 176.446 84.5596 170.839 84.5596 165.231 84.5596 160.92 82.3416 157.879 77.9304L157.879 98.6903 152.297 98.6903 152.297 46.7283 157.879 46.7283 157.879 52.6846ZM170.465 51.1893C166.453 51.1893 163.263 52.585 160.945 55.3513 158.702 57.993 157.605 61.3076 157.605 65.32 157.605 69.3324 158.727 72.6719 160.945 75.2887 163.288 78.0799 166.453 79.4506 170.465 79.4506 174.428 79.4506 177.667 78.055 180.135 75.2887 182.477 72.647 183.624 69.3324 183.624 65.32 183.624 61.3076 182.452 57.9681 180.135 55.3513 177.667 52.585 174.428 51.1893 170.465 51.1893Z" fill="#3D4647" transform="matrix(1.00056 0 0 1 62 46.0027)"/><path d="M200.845 83.9615 200.845 51.6379 192.496 51.6379 192.496 46.7283 200.845 46.7283 200.845 33.3952 206.427 33.3952 206.427 46.7283 214.726 46.7283 214.726 51.6379 206.427 51.6379 206.427 83.9615 200.845 83.9615Z" fill="#3D4647" transform="matrix(1.00056 0 0 1 62 46.0027)"/><path d="M238.526 79.4756C240.919 79.4756 243.012 78.8027 244.857 77.4569 246.701 76.1111 248.022 74.3915 248.869 72.2482L254.9 72.2482C253.754 75.9118 251.685 78.8774 248.645 81.1204 245.48 83.4132 241.691 84.5347 237.33 84.5347 231.872 84.5347 227.436 82.6656 223.997 78.9522 220.682 75.3385 219.013 70.7779 219.013 65.32 219.013 59.8621 220.682 55.3264 223.997 51.6878 227.411 47.9744 231.872 46.1053 237.33 46.1053 241.691 46.1053 245.48 47.2517 248.645 49.5196 251.66 51.7625 253.754 54.7033 254.9 58.3917L248.869 58.3917C248.022 56.2485 246.676 54.5289 244.857 53.1831 243.012 51.8373 240.919 51.1644 238.526 51.1644 236.134 51.1644 234.115 51.5382 232.445 52.2859 230.776 53.0336 229.38 54.0553 228.234 55.3513 225.791 58.0428 224.595 61.3574 224.595 65.32 224.595 69.2826 225.816 72.6221 228.234 75.2887 230.726 78.1049 234.14 79.4756 238.526 79.4756Z" fill="#3D4647" transform="matrix(1.00056 0 0 1 62 46.0027)"/><path d="M64.2982 132.16C63.725 131.936 63.1269 131.811 62.5288 131.811L58.1674 131.811 58.1674 142.079 62.5288 142.079C63.1269 142.079 63.725 141.954 64.2982 141.73 64.8714 141.506 65.3698 141.157 65.8184 140.708 66.7654 139.736 67.2639 138.465 67.2639 136.945 67.2639 135.425 66.7654 134.154 65.8184 133.182 65.3698 132.733 64.8714 132.385 64.2982 132.16ZM59.6378 133.257 62.454 133.257C63.4509 133.257 64.2234 133.606 64.8465 134.353 65.4446 135.051 65.7437 135.923 65.7437 136.97 65.7437 138.017 65.4446 138.889 64.8465 139.587 64.2234 140.31 63.4509 140.683 62.454 140.683L59.6378 140.683 59.6378 133.257Z" fill="#3D4647" transform="matrix(1.00056 0 0 1 62 46.0027)"/><path d="M71.4508 131.811 72.9461 131.811 72.9461 142.079 71.4508 142.079Z" fill="#3D4647" transform="matrix(1.00056 0 0 1 62 46.0027)"/><path d="M80.7466 133.456C81.1952 133.257 81.7684 133.157 82.4163 133.157 83.0643 133.157 83.6375 133.307 84.1359 133.581 84.6344 133.855 85.0331 134.279 85.3073 134.777L85.3571 134.877 86.977 134.877 86.8524 134.627C86.4786 133.755 85.8555 133.032 85.0331 132.509 84.6344 132.26 84.1858 132.061 83.7123 131.911 83.2388 131.761 82.6406 131.687 81.9927 131.687 81.3198 131.687 80.6718 131.836 80.0737 132.11L80.0737 132.11C79.4506 132.385 78.9273 132.758 78.4787 133.232 77.5566 134.229 77.108 135.475 77.108 136.945 77.108 138.441 77.5566 139.687 78.4538 140.659 78.8774 141.132 79.4257 141.506 80.0488 141.78 80.6718 142.054 81.2949 142.204 81.9179 142.204 82.5409 142.204 83.0394 142.154 83.4381 142.054 84.2855 141.805 85.0082 141.356 85.5565 140.708L85.5565 142.079 86.9521 142.079 86.9521 136.447 81.9179 136.447 81.9179 137.842 85.5316 137.842C85.4817 138.715 85.1577 139.388 84.5347 139.911 83.8867 140.459 83.1141 140.733 82.2419 140.733 81.1453 140.733 80.2232 140.359 79.5752 139.637 78.9522 138.939 78.6282 138.042 78.6282 136.945 78.6282 135.849 78.9522 134.951 79.6002 134.254 79.9242 133.905 80.298 133.656 80.7466 133.456Z" fill="#3D4647" transform="matrix(1.00056 0 0 1 62 46.0027)"/><path d="M91.3633 131.811 92.8586 131.811 92.8586 142.079 91.3633 142.079Z" fill="#3D4647" transform="matrix(1.00056 0 0 1 62 46.0027)"/><path d="M96.6716 133.257 100.136 133.257 100.136 142.104 101.631 142.104 101.631 133.257 105.07 133.257 105.07 131.811 96.6716 131.811Z" fill="#3D4647" transform="matrix(1.00056 0 0 1 62 46.0027)"/><path d="M111.101 131.811 106.74 142.079 108.385 142.079 109.606 139.213 114.266 139.213 115.488 142.079 117.132 142.079 112.771 131.811 111.101 131.811ZM113.668 137.817 110.179 137.817 111.924 133.656 113.668 137.817Z" fill="#3D4647" transform="matrix(1.00056 0 0 1 62 46.0027)"/><path d="M122.191 131.811 120.696 131.811 120.696 142.104 127.575 142.104 127.575 140.634 122.191 140.634Z" fill="#3D4647" transform="matrix(1.00056 0 0 1 62 46.0027)"/><path d="M136.372 133.257 139.836 133.257 139.836 142.104 141.331 142.104 141.331 133.257 144.796 133.257 144.796 131.811 136.372 131.811Z" fill="#3D4647" transform="matrix(1.00056 0 0 1 62 46.0027)"/><path d="M155.412 137.793C156.509 137.319 157.057 136.397 157.057 135.101 157.057 134.104 156.733 133.282 156.085 132.708 155.437 132.11 154.59 131.811 153.543 131.811L148.609 131.811 148.609 142.079 150.104 142.079 150.104 138.266 153.244 138.266 155.637 142.079 157.406 142.079 154.764 138.017C154.989 137.967 155.188 137.892 155.412 137.793ZM150.104 133.257 153.394 133.257C154.042 133.257 154.59 133.431 154.989 133.755 155.387 134.079 155.562 134.528 155.562 135.101 155.562 135.45 155.487 135.749 155.362 135.973 154.989 136.571 154.341 136.87 153.344 136.87L150.104 136.87 150.104 133.257Z" fill="#3D4647" transform="matrix(1.00056 0 0 1 62 46.0027)"/><path d="M164.484 131.811 160.122 142.079 161.767 142.079 162.988 139.213 167.649 139.213 168.87 142.079 170.515 142.079 166.154 131.811 164.484 131.811ZM167.051 137.817 163.562 137.817 165.306 133.656 167.051 137.817Z" fill="#3D4647" transform="matrix(1.00056 0 0 1 62 46.0027)"/><path d="M181.48 139.761 175.649 131.811 174.054 131.811 174.054 142.104 175.549 142.104 175.549 134.104 181.406 142.104 182.976 142.104 182.976 131.811 181.48 131.811Z" fill="#3D4647" transform="matrix(1.00056 0 0 1 62 46.0027)"/><path d="M194.49 137.169C194.166 136.945 193.767 136.771 193.343 136.621 192.92 136.497 192.496 136.372 192.072 136.247 191.648 136.148 191.225 136.048 190.826 135.948 190.427 135.849 190.078 135.749 189.754 135.624 189.455 135.5 189.231 135.35 189.032 135.176 188.882 135.026 188.807 134.852 188.807 134.677 188.807 134.478 188.832 134.279 188.907 134.104 188.957 133.93 189.082 133.78 189.231 133.631 189.406 133.481 189.655 133.356 189.979 133.257 190.303 133.157 190.701 133.082 191.2 133.082 191.673 133.082 192.097 133.132 192.421 133.232 193.318 133.481 193.792 133.955 193.867 134.702L193.891 134.877 195.412 134.877 195.412 134.677C195.362 133.83 195.013 133.132 194.34 132.584 193.617 131.986 192.596 131.662 191.3 131.662 190.004 131.662 189.032 131.936 188.384 132.459 187.711 133.008 187.387 133.705 187.387 134.578 187.387 135.201 187.586 135.699 187.935 136.073 188.284 136.422 188.733 136.721 189.256 136.92 189.779 137.12 190.328 137.294 190.926 137.419 191.499 137.543 192.047 137.693 192.546 137.842 193.019 137.992 193.443 138.166 193.742 138.391 194.016 138.59 194.166 138.839 194.166 139.188 194.166 140.235 193.318 140.758 191.574 140.758 190.726 140.758 190.029 140.609 189.53 140.31 188.957 139.986 188.683 139.512 188.633 138.914L188.633 138.74 187.088 138.74 187.113 138.939C187.212 139.936 187.611 140.733 188.284 141.282 189.032 141.88 190.153 142.179 191.574 142.179 192.845 142.179 193.842 141.93 194.564 141.406 195.312 140.883 195.686 140.11 195.686 139.138 195.636 138.316 195.262 137.643 194.49 137.169Z" fill="#3D4647" transform="matrix(1.00056 0 0 1 62 46.0027)"/><path d="M199.773 142.104 201.268 142.104 201.268 137.793 206.626 137.793 206.626 136.322 201.268 136.322 201.268 133.257 207.299 133.257 207.299 131.811 199.773 131.811Z" fill="#3D4647" transform="matrix(1.00056 0 0 1 62 46.0027)"/><path d="M215.848 131.687C214.327 131.687 213.056 132.21 212.084 133.232 211.137 134.229 210.639 135.475 210.639 136.945 210.639 138.416 211.137 139.687 212.084 140.659 213.056 141.68 214.327 142.204 215.848 142.204 217.368 142.204 218.639 141.68 219.611 140.659 220.558 139.662 221.056 138.416 221.056 136.945 221.056 135.475 220.558 134.204 219.611 133.232 218.639 132.21 217.368 131.687 215.848 131.687ZM215.848 140.758C214.726 140.758 213.804 140.384 213.131 139.662 212.458 138.964 212.134 138.067 212.134 136.97 212.134 135.874 212.458 134.976 213.131 134.279 213.829 133.556 214.726 133.182 215.848 133.182 216.969 133.182 217.891 133.556 218.564 134.279 219.237 134.976 219.561 135.898 219.561 136.97 219.561 138.042 219.237 138.964 218.564 139.662 217.891 140.384 216.969 140.758 215.848 140.758Z" fill="#3D4647" transform="matrix(1.00056 0 0 1 62 46.0027)"/><path d="M232.047 137.793C233.143 137.319 233.692 136.397 233.692 135.101 233.692 134.104 233.368 133.282 232.72 132.708 232.072 132.11 231.224 131.811 230.178 131.811L225.243 131.811 225.243 142.079 226.738 142.079 226.738 138.266 229.879 138.266 232.271 142.079 234.04 142.079 231.399 138.017C231.623 137.967 231.847 137.892 232.047 137.793ZM226.738 133.257 230.028 133.257C230.676 133.257 231.224 133.431 231.623 133.755 232.022 134.079 232.196 134.528 232.196 135.101 232.196 135.45 232.121 135.749 231.997 135.973 231.623 136.571 230.975 136.87 229.978 136.87L226.738 136.87 226.738 133.257Z" fill="#3D4647" transform="matrix(1.00056 0 0 1 62 46.0027)"/><path d="M243.062 136.397 239.623 131.811 238.028 131.811 238.028 142.104 239.523 142.104 239.523 134.254 243.062 138.715 246.551 134.254 246.551 142.104 248.046 142.104 248.046 131.811 246.452 131.811Z" fill="#3D4647" transform="matrix(1.00056 0 0 1 62 46.0027)"/><path d="M259.56 137.169C259.236 136.945 258.838 136.771 258.414 136.621 257.99 136.497 257.567 136.372 257.143 136.247 256.719 136.148 256.296 136.048 255.897 135.948 255.498 135.849 255.149 135.749 254.825 135.624 254.526 135.5 254.302 135.35 254.102 135.176 253.953 135.026 253.878 134.852 253.878 134.677 253.878 134.478 253.903 134.279 253.978 134.104 254.028 133.93 254.152 133.78 254.302 133.631 254.476 133.481 254.726 133.356 255.05 133.257 255.373 133.157 255.772 133.082 256.271 133.082 256.744 133.082 257.168 133.132 257.492 133.232 258.389 133.481 258.863 133.955 258.937 134.702L258.962 134.877 260.482 134.877 260.482 134.677C260.433 133.83 260.084 133.132 259.411 132.584 258.688 131.986 257.666 131.662 256.37 131.662 255.074 131.662 254.102 131.936 253.455 132.459 252.782 133.008 252.458 133.705 252.458 134.578 252.458 135.201 252.657 135.699 253.006 136.073 253.355 136.422 253.803 136.721 254.327 136.92 254.85 137.12 255.398 137.294 255.997 137.419 256.57 137.543 257.118 137.693 257.616 137.842 258.09 137.992 258.514 138.166 258.813 138.391 259.087 138.59 259.236 138.839 259.236 139.188 259.236 140.235 258.389 140.758 256.645 140.758 255.797 140.758 255.099 140.609 254.601 140.31 254.028 139.986 253.754 139.512 253.704 138.914L253.704 138.74 252.159 138.74 252.184 138.939C252.283 139.936 252.682 140.733 253.355 141.282 254.102 141.88 255.224 142.179 256.645 142.179 257.916 142.179 258.912 141.93 259.635 141.406 260.383 140.883 260.757 140.11 260.757 139.138 260.707 138.316 260.308 137.643 259.56 137.169Z" fill="#3D4647" transform="matrix(1.00056 0 0 1 62 46.0027)"/><path d="M275.436 131.811 270.8 131.811 270.8 142.079 272.295 142.079 272.295 138.565 275.436 138.565C276.532 138.565 277.404 138.266 278.052 137.643 278.7 137.045 279.024 136.198 279.024 135.176 279.024 134.154 278.7 133.332 278.052 132.708 277.404 132.11 276.532 131.811 275.436 131.811ZM272.27 133.257 275.336 133.257C276.059 133.257 276.607 133.431 276.981 133.78 277.355 134.129 277.529 134.603 277.529 135.201 277.529 135.824 277.355 136.272 276.981 136.621 276.632 136.97 276.059 137.145 275.336 137.145L272.27 137.145 272.27 133.257Z" fill="#3D4647" transform="matrix(1.00056 0 0 1 62 46.0027)"/><path d="M289.84 136.222 284.457 136.222 284.457 131.811 282.962 131.811 282.962 142.104 284.457 142.104 284.457 137.668 289.84 137.668 289.84 142.104 291.336 142.104 291.336 131.811 289.84 131.811Z" fill="#3D4647" transform="matrix(1.00056 0 0 1 62 46.0027)"/><path d="M299.834 136.497 296.569 131.811 294.75 131.811 299.086 138.042 299.086 142.104 300.582 142.104 300.582 138.042 304.893 131.811 303.074 131.811Z" fill="#3D4647" transform="matrix(1.00056 0 0 1 62 46.0027)"/><path d="M314.862 137.169C314.538 136.945 314.139 136.771 313.715 136.621 313.292 136.497 312.868 136.372 312.444 136.247 312.021 136.148 311.597 136.048 311.198 135.948 310.8 135.849 310.451 135.749 310.127 135.624 309.828 135.5 309.603 135.35 309.404 135.176 309.254 135.026 309.18 134.852 309.18 134.677 309.18 134.478 309.205 134.279 309.279 134.104 309.329 133.93 309.454 133.78 309.603 133.631 309.778 133.481 310.027 133.356 310.351 133.257 310.675 133.157 311.074 133.082 311.572 133.082 312.046 133.082 312.469 133.132 312.793 133.232 313.69 133.481 314.164 133.955 314.239 134.702L314.264 134.877 315.784 134.877 315.784 134.677C315.734 133.83 315.385 133.132 314.712 132.584 313.99 131.986 312.968 131.662 311.672 131.662 310.376 131.662 309.404 131.936 308.756 132.459 308.083 133.008 307.759 133.705 307.759 134.578 307.759 135.201 307.958 135.699 308.307 136.073 308.656 136.422 309.105 136.721 309.628 136.92 310.152 137.12 310.7 137.294 311.298 137.419 311.871 137.543 312.419 137.693 312.918 137.842 313.391 137.992 313.815 138.166 314.114 138.391 314.388 138.59 314.538 138.839 314.538 139.188 314.538 140.235 313.69 140.758 311.946 140.758 311.099 140.758 310.401 140.609 309.902 140.31 309.329 139.986 309.055 139.512 309.005 138.914L309.005 138.74 307.46 138.74 307.485 138.939C307.585 139.936 307.983 140.733 308.656 141.282 309.404 141.88 310.525 142.179 311.946 142.179 313.217 142.179 314.214 141.93 314.937 141.406 315.684 140.883 316.058 140.11 316.058 139.138 316.008 138.316 315.609 137.643 314.862 137.169Z" fill="#3D4647" transform="matrix(1.00056 0 0 1 62 46.0027)"/><path d="M320.145 131.811 321.641 131.811 321.641 142.079 320.145 142.079Z" fill="#3D4647" transform="matrix(1.00056 0 0 1 62 46.0027)"/><path d="M329.366 133.456C329.815 133.257 330.388 133.157 331.061 133.157 331.734 133.157 332.307 133.332 332.83 133.656 333.329 134.004 333.703 134.453 333.952 135.026L334.002 135.151 335.572 135.151 335.472 134.902C335.123 133.93 334.55 133.157 333.777 132.609 332.93 132.011 331.933 131.712 330.812 131.712 329.316 131.712 328.095 132.235 327.148 133.257 326.276 134.229 325.827 135.475 325.827 136.97 325.827 138.465 326.276 139.712 327.148 140.683 328.07 141.705 329.316 142.229 330.812 142.229 331.933 142.229 332.93 141.93 333.777 141.331 334.575 140.783 335.148 139.986 335.472 139.039L335.572 138.789 334.002 138.789 333.952 138.914C333.703 139.487 333.329 139.936 332.83 140.285 332.332 140.609 331.734 140.783 331.061 140.783 329.84 140.783 328.893 140.409 328.245 139.687 327.622 138.989 327.323 138.092 327.323 136.995 327.323 135.898 327.622 134.976 328.245 134.279 328.544 133.905 328.918 133.656 329.366 133.456Z" fill="#3D4647" transform="matrix(1.00056 0 0 1 62 46.0027)"/><path d="M342.65 131.811 338.288 142.079 339.933 142.079 341.154 139.213 345.815 139.213 347.036 142.079 348.681 142.079 344.319 131.811 342.65 131.811ZM345.217 137.817 341.727 137.817 343.472 133.656 345.217 137.817Z" fill="#3D4647" transform="matrix(1.00056 0 0 1 62 46.0027)"/><path d="M353.715 140.634 353.715 131.811 352.22 131.811 352.22 142.104 359.123 142.104 359.123 140.634Z" fill="#3D4647" transform="matrix(1.00056 0 0 1 62 46.0027)"/></g></svg>