<svg width="322" height="131" xmlns="http://www.w3.org/2000/svg" xmlns:xlink="http://www.w3.org/1999/xlink" xml:space="preserve" overflow="hidden"><defs><clipPath id="clip0"><rect x="30" y="48" width="322" height="131"/></clipPath></defs><g clip-path="url(#clip0)" transform="translate(-30 -48)"><path d="M70.627 21.0841 45.0565 35.8527 45.0565 48.9268 70.627 34.0427 85.0105 42.2838 82.1607 43.959 70.627 37.3353 60.6145 43.131 83.5086 56.3784 96.2168 48.946 96.2168 35.8527Z" fill="#FFFFFF" transform="matrix(1 0 0 1.00328 30 48.0021)"/><path d="M70.627 80.1005 96.2168 65.3704 96.2168 52.2771 70.627 67.1419 56.2436 58.9008 59.1126 57.2449 70.627 63.8686 80.6589 58.0728 57.7455 44.8062 45.0565 52.2386 45.0565 65.3704Z" fill="#6EBE4C" transform="matrix(1 0 0 1.00328 30 48.0021)"/><path d="M121.98 40.7049C124.29 37.3353 127.718 35.6409 132.281 35.6409 136.421 35.6409 139.771 37.085 142.352 39.954 144.913 42.7844 146.203 46.3081 146.203 50.4864 146.203 54.6647 144.913 58.1691 142.352 61.0188 139.791 63.8878 136.325 65.3319 131.992 65.3319 127.66 65.3319 124.329 63.6182 121.98 60.2101L121.98 76.2495 117.667 76.2495 117.667 36.103 121.98 36.103 121.98 40.7049ZM131.704 39.5496C128.604 39.5496 126.139 40.6279 124.348 42.7652 122.615 44.8062 121.768 47.3671 121.768 50.4671 121.768 53.5672 122.635 56.1473 124.348 58.1691 126.158 60.3257 128.604 61.3847 131.704 61.3847 134.765 61.3847 137.268 60.3064 139.175 58.1691 140.985 56.1281 141.87 53.5672 141.87 50.4671 141.87 47.3671 140.965 44.7869 139.175 42.7652 137.268 40.6279 134.765 39.5496 131.704 39.5496Z" fill="#FFFFFF" transform="matrix(1 0 0 1.00328 30 48.0021)"/><path d="M155.175 64.8698 155.175 39.8962 148.725 39.8962 148.725 36.103 155.175 36.103 155.175 25.8016 159.488 25.8016 159.488 36.103 165.9 36.103 165.9 39.8962 159.488 39.8962 159.488 64.8698 155.175 64.8698Z" fill="#FFFFFF" transform="matrix(1 0 0 1.00328 30 48.0021)"/><path d="M184.289 61.4039C186.137 61.4039 187.755 60.8841 189.18 59.8443 190.604 58.8045 191.625 57.4759 192.28 55.82L196.939 55.82C196.054 58.6505 194.455 60.9418 192.106 62.6748 189.661 64.4462 186.734 65.3127 183.365 65.3127 179.148 65.3127 175.72 63.8686 173.063 60.9996 170.502 58.2076 169.212 54.684 169.212 50.4671 169.212 46.2503 170.502 42.7459 173.063 39.9347 175.701 37.0657 179.148 35.6216 183.365 35.6216 186.734 35.6216 189.661 36.5073 192.106 38.2595 194.436 39.9925 196.054 42.2645 196.939 45.1143L192.28 45.1143C191.625 43.4584 190.585 42.1298 189.18 41.09 187.755 40.0502 186.137 39.5303 184.289 39.5303 182.44 39.5303 180.881 39.8192 179.591 40.3968 178.301 40.9745 177.222 41.7639 176.337 42.7652 174.45 44.8447 173.525 47.4056 173.525 50.4671 173.525 53.5287 174.469 56.1088 176.337 58.1691 178.262 60.3449 180.9 61.4039 184.289 61.4039Z" fill="#FFFFFF" transform="matrix(1 0 0 1.00328 30 48.0021)"/><path d="M49.6777 102.109C49.2348 101.936 48.7727 101.839 48.3106 101.839L44.941 101.839 44.941 109.772 48.3106 109.772C48.7727 109.772 49.2348 109.676 49.6777 109.503 50.1206 109.329 50.5056 109.06 50.8522 108.713 51.5839 107.962 51.969 106.98 51.969 105.806 51.969 104.631 51.5839 103.649 50.8522 102.898 50.5056 102.552 50.1206 102.282 49.6777 102.109ZM46.077 102.956 48.2528 102.956C49.023 102.956 49.6199 103.226 50.1013 103.803 50.5634 104.342 50.7945 105.016 50.7945 105.825 50.7945 106.634 50.5634 107.308 50.1013 107.847 49.6199 108.405 49.023 108.694 48.2528 108.694L46.077 108.694 46.077 102.956Z" fill="#FFFFFF" transform="matrix(1 0 0 1.00328 30 48.0021)"/><path d="M55.2039 101.839 56.3591 101.839 56.3591 109.772 55.2039 109.772Z" fill="#FFFFFF" transform="matrix(1 0 0 1.00328 30 48.0021)"/><path d="M62.3859 103.11C62.7325 102.956 63.1754 102.879 63.676 102.879 64.1766 102.879 64.6195 102.995 65.0046 103.206 65.3897 103.418 65.6978 103.745 65.9096 104.131L65.9481 104.208 67.1997 104.208 67.1034 104.015C66.8146 103.341 66.3332 102.783 65.6978 102.378 65.3897 102.186 65.0431 102.032 64.6773 101.916 64.3114 101.801 63.8493 101.743 63.3487 101.743 62.8288 101.743 62.3282 101.859 61.8661 102.07L61.8661 102.07C61.3847 102.282 60.9803 102.571 60.6337 102.937 59.9213 103.707 59.5747 104.67 59.5747 105.806 59.5747 106.961 59.9213 107.924 60.6145 108.675 60.9418 109.041 61.3654 109.329 61.8468 109.541 62.3282 109.753 62.8095 109.869 63.2909 109.869 63.7723 109.869 64.1574 109.83 64.4655 109.753 65.1201 109.56 65.6785 109.214 66.1021 108.713L66.1021 109.772 67.1804 109.772 67.1804 105.421 63.2909 105.421 63.2909 106.499 66.0829 106.499C66.0444 107.173 65.7941 107.693 65.3127 108.097 64.8121 108.521 64.2152 108.733 63.5412 108.733 62.694 108.733 61.9816 108.444 61.481 107.885 60.9996 107.346 60.7493 106.653 60.7493 105.806 60.7493 104.959 60.9996 104.265 61.5002 103.726 61.7505 103.457 62.0393 103.264 62.3859 103.11Z" fill="#FFFFFF" transform="matrix(1 0 0 1.00328 30 48.0021)"/><path d="M70.5885 101.839 71.7438 101.839 71.7438 109.772 70.5885 109.772Z" fill="#FFFFFF" transform="matrix(1 0 0 1.00328 30 48.0021)"/><path d="M74.6898 102.956 77.3663 102.956 77.3663 109.792 78.5216 109.792 78.5216 102.956 81.1787 102.956 81.1787 101.839 74.6898 101.839Z" fill="#FFFFFF" transform="matrix(1 0 0 1.00328 30 48.0021)"/><path d="M85.8384 101.839 82.4688 109.772 83.7396 109.772 84.6831 107.558 88.2838 107.558 89.2273 109.772 90.4981 109.772 87.1285 101.839 85.8384 101.839ZM87.8217 106.48 85.126 106.48 86.4738 103.264 87.8217 106.48Z" fill="#FFFFFF" transform="matrix(1 0 0 1.00328 30 48.0021)"/><path d="M94.4069 101.839 93.2516 101.839 93.2516 109.792 98.5659 109.792 98.5659 108.656 94.4069 108.656Z" fill="#FFFFFF" transform="matrix(1 0 0 1.00328 30 48.0021)"/><path d="M105.363 102.956 108.039 102.956 108.039 109.792 109.195 109.792 109.195 102.956 111.871 102.956 111.871 101.839 105.363 101.839Z" fill="#FFFFFF" transform="matrix(1 0 0 1.00328 30 48.0021)"/><path d="M120.074 106.46C120.921 106.095 121.344 105.382 121.344 104.381 121.344 103.611 121.094 102.975 120.594 102.532 120.093 102.07 119.438 101.839 118.63 101.839L114.817 101.839 114.817 109.772 115.972 109.772 115.972 106.826 118.398 106.826 120.247 109.772 121.614 109.772 119.573 106.634C119.746 106.595 119.9 106.537 120.074 106.46ZM115.972 102.956 118.514 102.956C119.015 102.956 119.438 103.091 119.746 103.341 120.054 103.591 120.189 103.938 120.189 104.381 120.189 104.65 120.131 104.882 120.035 105.055 119.746 105.517 119.246 105.748 118.476 105.748L115.972 105.748 115.972 102.956Z" fill="#FFFFFF" transform="matrix(1 0 0 1.00328 30 48.0021)"/><path d="M127.082 101.839 123.713 109.772 124.984 109.772 125.927 107.558 129.528 107.558 130.471 109.772 131.742 109.772 128.373 101.839 127.082 101.839ZM129.066 106.48 126.37 106.48 127.718 103.264 129.066 106.48Z" fill="#FFFFFF" transform="matrix(1 0 0 1.00328 30 48.0021)"/><path d="M140.214 107.982 135.709 101.839 134.476 101.839 134.476 109.792 135.632 109.792 135.632 103.611 140.157 109.792 141.37 109.792 141.37 101.839 140.214 101.839Z" fill="#FFFFFF" transform="matrix(1 0 0 1.00328 30 48.0021)"/><path d="M150.265 105.979C150.015 105.806 149.707 105.671 149.38 105.555 149.052 105.459 148.725 105.363 148.398 105.267 148.07 105.19 147.743 105.113 147.435 105.036 147.127 104.959 146.857 104.882 146.607 104.785 146.376 104.689 146.203 104.573 146.049 104.439 145.933 104.323 145.875 104.188 145.875 104.054 145.875 103.9 145.895 103.745 145.952 103.611 145.991 103.476 146.087 103.36 146.203 103.245 146.337 103.129 146.53 103.033 146.78 102.956 147.031 102.879 147.339 102.821 147.724 102.821 148.09 102.821 148.417 102.86 148.667 102.937 149.36 103.129 149.726 103.495 149.784 104.073L149.803 104.208 150.978 104.208 150.978 104.054C150.939 103.399 150.67 102.86 150.15 102.436 149.591 101.974 148.802 101.724 147.801 101.724 146.799 101.724 146.049 101.936 145.548 102.34 145.028 102.764 144.778 103.303 144.778 103.977 144.778 104.458 144.932 104.843 145.201 105.132 145.471 105.401 145.817 105.632 146.222 105.787 146.626 105.941 147.05 106.075 147.512 106.172 147.955 106.268 148.378 106.383 148.763 106.499 149.129 106.614 149.457 106.749 149.688 106.923 149.9 107.077 150.015 107.269 150.015 107.539 150.015 108.347 149.36 108.752 148.013 108.752 147.358 108.752 146.819 108.636 146.434 108.405 145.991 108.155 145.779 107.789 145.74 107.327L145.74 107.192 144.547 107.192 144.566 107.346C144.643 108.116 144.951 108.733 145.471 109.156 146.049 109.618 146.915 109.849 148.013 109.849 148.995 109.849 149.765 109.657 150.323 109.252 150.901 108.848 151.19 108.251 151.19 107.5 151.151 106.865 150.862 106.345 150.265 105.979Z" fill="#FFFFFF" transform="matrix(1 0 0 1.00328 30 48.0021)"/><path d="M154.347 109.792 155.503 109.792 155.503 106.46 159.643 106.46 159.643 105.324 155.503 105.324 155.503 102.956 160.162 102.956 160.162 101.839 154.347 101.839Z" fill="#FFFFFF" transform="matrix(1 0 0 1.00328 30 48.0021)"/><path d="M166.767 101.743C165.592 101.743 164.61 102.147 163.859 102.937 163.128 103.707 162.743 104.67 162.743 105.806 162.743 106.942 163.128 107.924 163.859 108.675 164.61 109.464 165.592 109.869 166.767 109.869 167.941 109.869 168.923 109.464 169.674 108.675 170.406 107.905 170.791 106.942 170.791 105.806 170.791 104.67 170.406 103.688 169.674 102.937 168.923 102.147 167.941 101.743 166.767 101.743ZM166.767 108.752C165.9 108.752 165.188 108.463 164.668 107.905 164.148 107.365 163.898 106.672 163.898 105.825 163.898 104.978 164.148 104.285 164.668 103.745 165.207 103.187 165.9 102.898 166.767 102.898 167.633 102.898 168.346 103.187 168.866 103.745 169.386 104.285 169.636 104.997 169.636 105.825 169.636 106.653 169.386 107.365 168.866 107.905 168.346 108.463 167.633 108.752 166.767 108.752Z" fill="#FFFFFF" transform="matrix(1 0 0 1.00328 30 48.0021)"/><path d="M179.283 106.46C180.13 106.095 180.553 105.382 180.553 104.381 180.553 103.611 180.303 102.975 179.802 102.532 179.302 102.07 178.647 101.839 177.838 101.839L174.026 101.839 174.026 109.772 175.181 109.772 175.181 106.826 177.607 106.826 179.456 109.772 180.823 109.772 178.782 106.634C178.955 106.595 179.129 106.537 179.283 106.46ZM175.181 102.956 177.723 102.956C178.224 102.956 178.647 103.091 178.955 103.341 179.263 103.591 179.398 103.938 179.398 104.381 179.398 104.65 179.34 104.882 179.244 105.055 178.955 105.517 178.455 105.748 177.684 105.748L175.181 105.748 175.181 102.956Z" fill="#FFFFFF" transform="matrix(1 0 0 1.00328 30 48.0021)"/><path d="M187.793 105.382 185.136 101.839 183.904 101.839 183.904 109.792 185.059 109.792 185.059 103.726 187.793 107.173 190.489 103.726 190.489 109.792 191.644 109.792 191.644 101.839 190.412 101.839Z" fill="#FFFFFF" transform="matrix(1 0 0 1.00328 30 48.0021)"/><path d="M200.54 105.979C200.29 105.806 199.982 105.671 199.654 105.555 199.327 105.459 199 105.363 198.672 105.267 198.345 105.19 198.018 105.113 197.71 105.036 197.401 104.959 197.132 104.882 196.882 104.785 196.65 104.689 196.477 104.573 196.323 104.439 196.208 104.323 196.15 104.188 196.15 104.054 196.15 103.9 196.169 103.745 196.227 103.611 196.265 103.476 196.362 103.36 196.477 103.245 196.612 103.129 196.805 103.033 197.055 102.956 197.305 102.879 197.613 102.821 197.998 102.821 198.364 102.821 198.692 102.86 198.942 102.937 199.635 103.129 200.001 103.495 200.059 104.073L200.078 104.208 201.252 104.208 201.252 104.054C201.214 103.399 200.944 102.86 200.424 102.436 199.866 101.974 199.077 101.724 198.075 101.724 197.074 101.724 196.323 101.936 195.823 102.34 195.303 102.764 195.052 103.303 195.052 103.977 195.052 104.458 195.206 104.843 195.476 105.132 195.745 105.401 196.092 105.632 196.496 105.787 196.901 105.941 197.324 106.075 197.787 106.172 198.229 106.268 198.653 106.383 199.038 106.499 199.404 106.614 199.731 106.749 199.962 106.923 200.174 107.077 200.29 107.269 200.29 107.539 200.29 108.347 199.635 108.752 198.287 108.752 197.632 108.752 197.093 108.636 196.708 108.405 196.265 108.155 196.054 107.789 196.015 107.327L196.015 107.192 194.821 107.192 194.841 107.346C194.918 108.116 195.226 108.733 195.745 109.156 196.323 109.618 197.19 109.849 198.287 109.849 199.269 109.849 200.039 109.657 200.598 109.252 201.175 108.848 201.464 108.251 201.464 107.5 201.426 106.865 201.118 106.345 200.54 105.979Z" fill="#FFFFFF" transform="matrix(1 0 0 1.00328 30 48.0021)"/><path d="M212.805 101.839 209.224 101.839 209.224 109.772 210.379 109.772 210.379 107.057 212.805 107.057C213.653 107.057 214.326 106.826 214.827 106.345 215.328 105.883 215.578 105.228 215.578 104.439 215.578 103.649 215.328 103.014 214.827 102.532 214.326 102.07 213.653 101.839 212.805 101.839ZM210.36 102.956 212.728 102.956C213.287 102.956 213.71 103.091 213.999 103.36 214.288 103.63 214.423 103.996 214.423 104.458 214.423 104.939 214.288 105.286 213.999 105.555 213.73 105.825 213.287 105.96 212.728 105.96L210.36 105.96 210.36 102.956Z" fill="#FFFFFF" transform="matrix(1 0 0 1.00328 30 48.0021)"/><path d="M223.935 105.247 219.776 105.247 219.776 101.839 218.62 101.839 218.62 109.792 219.776 109.792 219.776 106.364 223.935 106.364 223.935 109.792 225.09 109.792 225.09 101.839 223.935 101.839Z" fill="#FFFFFF" transform="matrix(1 0 0 1.00328 30 48.0021)"/><path d="M231.656 105.459 229.134 101.839 227.728 101.839 231.078 106.653 231.078 109.792 232.234 109.792 232.234 106.653 235.565 101.839 234.159 101.839Z" fill="#FFFFFF" transform="matrix(1 0 0 1.00328 30 48.0021)"/><path d="M243.267 105.979C243.016 105.806 242.708 105.671 242.381 105.555 242.054 105.459 241.726 105.363 241.399 105.267 241.072 105.19 240.744 105.113 240.436 105.036 240.128 104.959 239.859 104.882 239.608 104.785 239.377 104.689 239.204 104.573 239.05 104.439 238.934 104.323 238.877 104.188 238.877 104.054 238.877 103.9 238.896 103.745 238.954 103.611 238.992 103.476 239.088 103.36 239.204 103.245 239.339 103.129 239.531 103.033 239.782 102.956 240.032 102.879 240.34 102.821 240.725 102.821 241.091 102.821 241.418 102.86 241.668 102.937 242.362 103.129 242.727 103.495 242.785 104.073L242.805 104.208 243.979 104.208 243.979 104.054C243.941 103.399 243.671 102.86 243.151 102.436 242.593 101.974 241.803 101.724 240.802 101.724 239.801 101.724 239.05 101.936 238.549 102.34 238.029 102.764 237.779 103.303 237.779 103.977 237.779 104.458 237.933 104.843 238.203 105.132 238.472 105.401 238.819 105.632 239.223 105.787 239.627 105.941 240.051 106.075 240.513 106.172 240.956 106.268 241.38 106.383 241.765 106.499 242.131 106.614 242.458 106.749 242.689 106.923 242.901 107.077 243.016 107.269 243.016 107.539 243.016 108.347 242.362 108.752 241.014 108.752 240.359 108.752 239.82 108.636 239.435 108.405 238.992 108.155 238.78 107.789 238.742 107.327L238.742 107.192 237.548 107.192 237.567 107.346C237.644 108.116 237.952 108.733 238.472 109.156 239.05 109.618 239.916 109.849 241.014 109.849 241.996 109.849 242.766 109.657 243.324 109.252 243.902 108.848 244.191 108.251 244.191 107.5 244.152 106.865 243.844 106.345 243.267 105.979Z" fill="#FFFFFF" transform="matrix(1 0 0 1.00328 30 48.0021)"/><path d="M247.349 101.839 248.504 101.839 248.504 109.772 247.349 109.772Z" fill="#FFFFFF" transform="matrix(1 0 0 1.00328 30 48.0021)"/><path d="M254.473 103.11C254.82 102.956 255.262 102.879 255.782 102.879 256.302 102.879 256.745 103.014 257.149 103.264 257.535 103.534 257.823 103.88 258.016 104.323L258.054 104.419 259.267 104.419 259.19 104.227C258.921 103.476 258.478 102.879 257.881 102.455 257.226 101.993 256.456 101.762 255.59 101.762 254.434 101.762 253.491 102.167 252.759 102.956 252.085 103.707 251.739 104.67 251.739 105.825 251.739 106.98 252.085 107.943 252.759 108.694 253.472 109.483 254.434 109.888 255.59 109.888 256.456 109.888 257.226 109.657 257.881 109.195 258.497 108.771 258.94 108.155 259.19 107.423L259.267 107.231 258.054 107.231 258.016 107.327C257.823 107.77 257.535 108.116 257.149 108.386 256.764 108.636 256.302 108.771 255.782 108.771 254.839 108.771 254.107 108.482 253.607 107.924 253.125 107.385 252.894 106.691 252.894 105.844 252.894 104.997 253.125 104.285 253.607 103.745 253.838 103.457 254.126 103.264 254.473 103.11Z" fill="#FFFFFF" transform="matrix(1 0 0 1.00328 30 48.0021)"/><path d="M264.736 101.839 261.366 109.772 262.637 109.772 263.581 107.558 267.181 107.558 268.125 109.772 269.396 109.772 266.026 101.839 264.736 101.839ZM266.719 106.48 264.023 106.48 265.371 103.264 266.719 106.48Z" fill="#FFFFFF" transform="matrix(1 0 0 1.00328 30 48.0021)"/><path d="M273.285 108.656 273.285 101.839 272.13 101.839 272.13 109.792 277.463 109.792 277.463 108.656Z" fill="#FFFFFF" transform="matrix(1 0 0 1.00328 30 48.0021)"/></g></svg>