<svg viewBox="0 0 1437.9 299.86" xmlns="http://www.w3.org/2000/svg" xmlns:xlink="http://www.w3.org/1999/xlink" id="Layer_1" overflow="hidden"><defs></defs><path d="M393.49 236.83 393.49 135.17 369.6 135.17 369.6 119.71 393.49 119.71 393.49 77.78 411.06 77.78 411.06 119.71 438 119.71 438 135.17 411.06 135.17 411.06 236.83 393.49 236.83Z" fill="#3D4647"/><path d="M472.98 72.86 472.98 137.97C477.2 132.35 482.35 127.59 488.44 123.68 494.53 119.78 501.48 117.82 509.29 117.82 517.1 117.82 523.81 118.91 529.43 121.1 535.05 123.29 539.97 126.57 544.19 130.94 553.87 140.47 558.71 153.04 558.71 168.65L558.71 236.81 541.14 236.81 541.14 169.12C541.14 158.34 538.1 149.76 532 143.35 525.91 136.95 518.03 133.75 508.34 133.75 498.65 133.75 490.15 137.03 483.28 143.59 476.41 150.3 472.97 158.89 472.97 169.35L472.97 236.81 455.4 236.81 455.4 72.86 472.97 72.86Z" fill="#3D4647"/><path d="M586.71 119.71 604.28 119.71 604.28 236.83 586.71 236.83 586.71 119.71Z" fill="#3D4647"/><path d="M651.19 119.71 651.19 137.98C655.41 132.36 660.56 127.6 666.65 123.69 672.74 119.79 679.68 117.83 687.49 117.83 695.3 117.83 702.01 118.92 707.64 121.11 713.26 123.3 718.18 126.58 722.4 130.95 732.08 140.48 736.92 153.05 736.92 168.66L736.92 236.82 719.35 236.82 719.35 169.13C719.35 158.35 716.3 149.77 710.21 143.36 704.12 136.96 696.23 133.76 686.55 133.76 676.87 133.76 668.36 137.04 661.49 143.6 654.62 150.31 651.19 158.9 651.19 169.36L651.19 236.82 633.62 236.82 633.62 119.7 651.19 119.7Z" fill="#3D4647"/><path d="M856.98 138.45 856.98 119.71 874.55 119.71 874.55 233.31C874.55 250.18 869.75 263.02 860.15 271.84 850.55 280.66 837.62 285.08 821.38 285.08 805.14 285.08 792.45 281.95 783.32 275.71 774.18 269.46 767.98 261.19 764.7 250.88L784.14 250.88C789.13 263.06 800.54 269.15 818.34 269.15 831.92 269.15 841.76 266.02 847.85 259.78 853.94 253.53 856.99 244.32 856.99 232.14L856.99 215.98C847.46 229.88 833.49 236.83 815.06 236.83 798.19 236.83 784.45 231.06 773.83 219.49 763.53 208.25 758.37 194.19 758.37 177.33 758.37 160.47 763.53 146.41 773.83 135.17 784.45 123.61 798.62 117.83 816.34 117.83 834.06 117.83 847.61 124.7 856.98 138.45ZM817.39 220.9C823.79 220.9 829.49 219.77 834.49 217.5 839.49 215.23 843.78 212.15 847.37 208.24 854.4 200.12 857.91 189.82 857.91 177.32 857.91 164.82 854.4 154.52 847.37 146.4 839.72 137.96 829.72 133.75 817.39 133.75 805.06 133.75 794.59 137.97 786.94 146.4 779.6 154.68 775.93 164.98 775.93 177.32 775.93 189.66 779.6 199.96 786.94 208.24 794.59 216.68 804.74 220.89 817.39 220.89Z" fill="#3D4647"/><path d="M977.45 143.36 948.17 236.82 928.03 236.82 891.25 119.7 909.99 119.7 938.1 215.03 967.85 119.7 987.06 119.7 1016.81 215.03 1044.92 119.7 1063.66 119.7 1026.88 236.82 1006.74 236.82 977.46 143.36Z" fill="#3D4647"/><path d="M1127.97 117.83C1145.46 117.83 1159.67 123.69 1170.6 135.4 1180.91 146.64 1186.06 160.93 1186.06 178.27 1186.06 195.61 1180.91 209.89 1170.6 221.13 1159.67 232.84 1145.46 238.7 1127.97 238.7 1110.48 238.7 1096.27 232.84 1085.34 221.13 1075.04 209.89 1069.88 195.6 1069.88 178.27 1069.88 160.94 1075.04 146.65 1085.34 135.4 1096.27 123.69 1110.48 117.83 1127.97 117.83ZM1127.97 222.77C1140.62 222.77 1150.61 218.4 1157.95 209.65 1164.98 201.37 1168.49 190.91 1168.49 178.26 1168.49 165.61 1164.98 155.15 1157.95 146.87 1150.61 138.12 1140.61 133.75 1127.97 133.75 1115.33 133.75 1105.33 138.12 1097.99 146.87 1090.97 155.15 1087.45 165.61 1087.45 178.26 1087.45 190.91 1090.97 201.37 1097.99 209.65 1105.33 218.4 1115.33 222.77 1127.97 222.77Z" fill="#3D4647"/><path d="M1270.33 117.83 1270.33 135.4 1268.22 135.4C1255.57 135.4 1245.26 140.48 1237.3 150.63 1229.8 160.31 1226.06 171.87 1226.06 185.3L1226.06 236.83 1208.49 236.83 1208.49 119.71 1226.06 119.71 1226.06 148.52C1229.81 136.34 1237.93 127.36 1250.42 121.58 1255.58 119.08 1261.82 117.83 1269.16 117.83L1270.33 117.83Z" fill="#3D4647"/><path d="M1345.33 176.39 1390.77 236.82 1368.29 236.82 1335.26 189.04 1302 236.82 1279.75 236.82 1324.96 176.39 1282.56 119.71 1305.04 119.71 1335.26 163.98 1365.24 119.71 1387.73 119.71 1345.33 176.39Z" fill="#3D4647"/><path d="M1419.17 122.07C1421.75 122.07 1424.18 122.56 1426.46 123.54 1428.73 124.53 1430.72 125.86 1432.41 127.56 1434.1 129.25 1435.44 131.24 1436.43 133.51 1437.41 135.79 1437.9 138.22 1437.9 140.8 1437.9 143.38 1437.41 145.81 1436.43 148.06 1435.44 150.32 1434.11 152.29 1432.41 153.99 1430.72 155.68 1428.73 157.02 1426.46 158 1424.18 158.99 1421.75 159.48 1419.17 159.48 1416.59 159.48 1414.16 158.99 1411.9 158 1409.64 157.02 1407.67 155.68 1405.97 153.99 1404.28 152.29 1402.94 150.32 1401.95 148.06 1400.97 145.8 1400.48 143.38 1400.48 140.8 1400.48 138.22 1400.97 135.79 1401.95 133.51 1402.94 131.23 1404.27 129.25 1405.97 127.56 1407.66 125.87 1409.64 124.53 1411.9 123.54 1414.16 122.56 1416.58 122.07 1419.17 122.07ZM1419.17 156.81C1423.61 156.81 1427.4 155.24 1430.53 152.11 1431.99 150.65 1433.13 148.95 1433.97 147 1434.81 145.05 1435.23 142.98 1435.23 140.77 1435.23 138.56 1434.81 136.49 1433.97 134.54 1433.13 132.59 1431.99 130.89 1430.53 129.43 1427.4 126.3 1423.61 124.73 1419.17 124.73 1414.73 124.73 1410.92 126.3 1407.86 129.43 1404.73 132.6 1403.16 136.38 1403.16 140.79 1403.16 142.98 1403.58 145.04 1404.42 146.99 1405.26 148.94 1406.4 150.64 1407.86 152.1 1410.92 155.23 1414.69 156.8 1419.17 156.8ZM1428.4 136.54C1428.4 137.78 1428.03 138.88 1427.31 139.84 1426.58 140.81 1425.58 141.49 1424.31 141.89 1426.31 142.47 1427.53 144.11 1427.97 146.8 1428.08 147.49 1428.13 148.11 1428.13 148.66L1428.13 151.23 1424.36 151.23 1424.36 149.15C1424.36 147.58 1424.2 146.45 1423.87 145.76 1423.18 144.3 1421.94 143.57 1420.15 143.57L1414.85 143.57 1414.85 151.22 1411.02 151.22 1411.02 130.35 1419.87 130.35C1422.82 130.35 1424.98 130.92 1426.34 132.05 1427.71 133.18 1428.39 134.67 1428.39 136.53ZM1419.61 140.31C1421.14 140.31 1422.36 140.02 1423.27 139.44 1424.18 138.86 1424.64 138.04 1424.64 136.98 1424.64 135.92 1424.27 135.09 1423.55 134.49 1422.82 133.89 1421.48 133.59 1419.51 133.59L1414.87 133.59 1414.87 140.31 1419.62 140.31Z" fill="#3D4647"/><circle cx="595.49" cy="88.55" r="11.48" fill="#4E585A"/><path d="M149.76 149.93 259.69 213.35 259.69 86.47 149.76 149.93Z" fill="#40AA1D"/><path d="M129.75 138.38 249.66 69.17 129.84 0 9.91 69.24 129.75 138.38Z" fill="#3D4647"/><path d="M109.75 149.93 0 86.61 0 213.27 109.75 149.93Z" fill="#40AA1D"/><path d="M129.75 161.47 9.94 230.63 129.84 299.86 249.69 230.67 129.75 161.47Z" fill="#3D4647"/></svg>